<?xml version="1.0" encoding="iso-8859-1"?>
<!-- Generator: Adobe Illustrator 18.1.1, SVG Export Plug-In . SVG Version: 6.00 Build 0)  -->
<svg version="1.1" id="Capa_1" xmlns="http://www.w3.org/2000/svg" xmlns:xlink="http://www.w3.org/1999/xlink" x="0px" y="0px"
	 viewBox="0 0 429.615 429.615" style="enable-background:new 0 0 429.615 429.615;" xml:space="preserve">
<g>
	<g>
		<path style="fill:#010002;" d="M107.404,131.37c-46.064,0-83.536,37.472-83.536,83.536s37.472,83.536,83.536,83.536
			c40.509,0,89.384-67.766,100.214-83.536C196.787,199.135,147.913,131.37,107.404,131.37z M107.404,286.508
			c-39.483,0-71.602-32.12-71.602-71.602s32.12-71.602,71.602-71.602c25.329,0,60.838,37.162,85.625,71.602
			C168.242,249.347,132.733,286.508,107.404,286.508z"/>
		<path style="fill:#010002;" d="M322.211,131.173c-40.509,0-89.384,67.766-100.214,83.536
			c10.824,15.77,59.705,83.536,100.214,83.536c46.064,0,83.536-37.472,83.536-83.536S368.275,131.173,322.211,131.173z
			 M322.211,286.311c-25.329,0-60.838-37.162-85.631-71.602c24.786-34.441,60.295-71.602,85.631-71.602
			c39.483,0,71.602,32.12,71.602,71.602S361.694,286.311,322.211,286.311z"/>
		<path style="fill:#010002;" d="M322.211,107.305c-41.87,0-84.3,46.482-107.481,76.746
			c-23.163-30.192-65.534-76.549-107.326-76.549C48.182,107.502,0,155.685,0,214.906s48.182,107.404,107.404,107.404
			c41.887,0,84.306-46.482,107.481-76.746c23.163,30.192,65.528,76.549,107.326,76.549c59.221,0,107.404-48.182,107.404-107.404
			S381.432,107.305,322.211,107.305z M322.211,310.179c-43.845,0-91.812-62.7-107.332-84.771
			c-15.377,21.892-63.499,84.968-107.475,84.968c-52.64,0-95.47-42.83-95.47-95.47s42.83-95.47,95.47-95.47
			c43.845,0,91.812,62.7,107.332,84.771c15.377-21.892,63.499-84.968,107.475-84.968c52.64,0,95.47,42.83,95.47,95.47
			S374.851,310.179,322.211,310.179z"/>
	</g>
</g>
<g>
</g>
<g>
</g>
<g>
</g>
<g>
</g>
<g>
</g>
<g>
</g>
<g>
</g>
<g>
</g>
<g>
</g>
<g>
</g>
<g>
</g>
<g>
</g>
<g>
</g>
<g>
</g>
<g>
</g>
</svg>
